<mxfile host="app.diagrams.net" modified="2022-02-16T09:17:31.741Z" agent="5.0 (Windows NT 10.0; Win64; x64) AppleWebKit/537.36 (KHTML, like Gecko) Chrome/98.0.4758.80 Safari/537.36 Edg/98.0.1108.50" etag="QrSrGIg_jb_W46Tmla5c" version="16.5.6" type="github">
  <diagram id="Ds7EV9VUPiysBH8LwUqr" name="Page-1">
    <mxGraphModel dx="652" dy="940" grid="1" gridSize="10" guides="1" tooltips="1" connect="1" arrows="1" fold="1" page="1" pageScale="1" pageWidth="827" pageHeight="1169" math="0" shadow="0">
      <root>
        <mxCell id="0" />
        <mxCell id="1" parent="0" />
        <mxCell id="UNmRJp8rPB-xAUSupDXy-4" value="Запуск игры" style="rounded=0;whiteSpace=wrap;html=1;fontSize=18;" vertex="1" parent="1">
          <mxGeometry x="40" y="400" width="200" height="80" as="geometry" />
        </mxCell>
        <mxCell id="UNmRJp8rPB-xAUSupDXy-5" value="" style="endArrow=none;html=1;rounded=0;fontSize=18;" edge="1" parent="1">
          <mxGeometry width="50" height="50" relative="1" as="geometry">
            <mxPoint x="240" y="440" as="sourcePoint" />
            <mxPoint x="360" y="440" as="targetPoint" />
          </mxGeometry>
        </mxCell>
        <mxCell id="UNmRJp8rPB-xAUSupDXy-6" value="" style="endArrow=classic;html=1;rounded=0;fontSize=18;" edge="1" parent="1">
          <mxGeometry width="50" height="50" relative="1" as="geometry">
            <mxPoint x="360" y="440" as="sourcePoint" />
            <mxPoint x="360" y="510" as="targetPoint" />
          </mxGeometry>
        </mxCell>
        <mxCell id="UNmRJp8rPB-xAUSupDXy-7" value="Загрузка игровых объектов" style="rounded=0;whiteSpace=wrap;html=1;fontSize=18;" vertex="1" parent="1">
          <mxGeometry x="220" y="510" width="200" height="80" as="geometry" />
        </mxCell>
        <mxCell id="UNmRJp8rPB-xAUSupDXy-8" value="" style="edgeStyle=isometricEdgeStyle;endArrow=none;html=1;rounded=0;fontSize=18;" edge="1" parent="1">
          <mxGeometry width="50" height="100" relative="1" as="geometry">
            <mxPoint x="305.79999999999995" y="440" as="sourcePoint" />
            <mxPoint x="390" y="360" as="targetPoint" />
          </mxGeometry>
        </mxCell>
        <mxCell id="UNmRJp8rPB-xAUSupDXy-9" value="Игровые объекты" style="text;html=1;strokeColor=none;fillColor=none;align=left;verticalAlign=middle;whiteSpace=wrap;rounded=0;fontSize=18;" vertex="1" parent="1">
          <mxGeometry x="354" y="330" width="60" height="30" as="geometry" />
        </mxCell>
        <mxCell id="UNmRJp8rPB-xAUSupDXy-10" value="" style="endArrow=none;html=1;rounded=0;fontSize=18;strokeWidth=2;jumpSize=8;" edge="1" parent="1">
          <mxGeometry width="50" height="50" relative="1" as="geometry">
            <mxPoint x="420" y="530" as="sourcePoint" />
            <mxPoint x="440" y="530" as="targetPoint" />
          </mxGeometry>
        </mxCell>
        <mxCell id="UNmRJp8rPB-xAUSupDXy-11" value="" style="endArrow=none;html=1;rounded=0;fontSize=18;strokeWidth=2;jumpSize=8;" edge="1" parent="1">
          <mxGeometry width="50" height="50" relative="1" as="geometry">
            <mxPoint x="440" y="280" as="sourcePoint" />
            <mxPoint x="440" y="530" as="targetPoint" />
          </mxGeometry>
        </mxCell>
        <mxCell id="UNmRJp8rPB-xAUSupDXy-12" value="" style="endArrow=classic;html=1;rounded=0;fontSize=18;strokeWidth=2;jumpSize=8;" edge="1" parent="1">
          <mxGeometry width="50" height="50" relative="1" as="geometry">
            <mxPoint x="440" y="280" as="sourcePoint" />
            <mxPoint x="340" y="280" as="targetPoint" />
          </mxGeometry>
        </mxCell>
        <mxCell id="UNmRJp8rPB-xAUSupDXy-13" value="" style="endArrow=none;html=1;rounded=0;fontSize=18;strokeWidth=2;jumpSize=8;" edge="1" parent="1">
          <mxGeometry width="50" height="50" relative="1" as="geometry">
            <mxPoint x="160" y="280" as="sourcePoint" />
            <mxPoint x="350" y="280" as="targetPoint" />
          </mxGeometry>
        </mxCell>
        <mxCell id="UNmRJp8rPB-xAUSupDXy-14" value="" style="endArrow=classic;html=1;rounded=0;fontSize=18;strokeWidth=2;jumpSize=8;entryX=0.598;entryY=-0.022;entryDx=0;entryDy=0;entryPerimeter=0;" edge="1" parent="1" target="UNmRJp8rPB-xAUSupDXy-4">
          <mxGeometry width="50" height="50" relative="1" as="geometry">
            <mxPoint x="160" y="280" as="sourcePoint" />
            <mxPoint x="210" y="230" as="targetPoint" />
          </mxGeometry>
        </mxCell>
        <mxCell id="UNmRJp8rPB-xAUSupDXy-15" value="" style="endArrow=none;html=1;rounded=0;fontSize=18;strokeWidth=1;jumpSize=1;jumpStyle=arc;" edge="1" parent="1">
          <mxGeometry width="50" height="50" relative="1" as="geometry">
            <mxPoint x="420" y="560" as="sourcePoint" />
            <mxPoint x="480" y="560" as="targetPoint" />
          </mxGeometry>
        </mxCell>
        <mxCell id="UNmRJp8rPB-xAUSupDXy-16" value="" style="endArrow=none;html=1;rounded=0;fontSize=18;strokeWidth=1;jumpStyle=arc;jumpSize=1;" edge="1" parent="1">
          <mxGeometry width="50" height="50" relative="1" as="geometry">
            <mxPoint x="480" y="640" as="sourcePoint" />
            <mxPoint x="480" y="560" as="targetPoint" />
          </mxGeometry>
        </mxCell>
        <mxCell id="UNmRJp8rPB-xAUSupDXy-17" value="" style="endArrow=classic;html=1;rounded=0;fontSize=18;strokeWidth=1;jumpStyle=arc;jumpSize=1;" edge="1" parent="1">
          <mxGeometry width="50" height="50" relative="1" as="geometry">
            <mxPoint x="480" y="640" as="sourcePoint" />
            <mxPoint x="520" y="640" as="targetPoint" />
          </mxGeometry>
        </mxCell>
        <mxCell id="UNmRJp8rPB-xAUSupDXy-18" value="Переход к геймплею" style="rounded=0;whiteSpace=wrap;html=1;fontSize=18;" vertex="1" parent="1">
          <mxGeometry x="520" y="600" width="200" height="80" as="geometry" />
        </mxCell>
        <mxCell id="UNmRJp8rPB-xAUSupDXy-19" value="" style="edgeStyle=isometricEdgeStyle;endArrow=none;html=1;elbow=vertical;rounded=0;fontSize=18;strokeWidth=1;jumpStyle=arc;jumpSize=1;" edge="1" parent="1">
          <mxGeometry width="50" height="100" relative="1" as="geometry">
            <mxPoint x="440" y="620" as="sourcePoint" />
            <mxPoint x="434.79999999999995" y="560" as="targetPoint" />
          </mxGeometry>
        </mxCell>
        <mxCell id="UNmRJp8rPB-xAUSupDXy-20" value="Код игры" style="text;html=1;strokeColor=none;fillColor=none;align=center;verticalAlign=middle;whiteSpace=wrap;rounded=0;fontSize=18;" vertex="1" parent="1">
          <mxGeometry x="250" y="620" width="234" height="30" as="geometry" />
        </mxCell>
        <mxCell id="UNmRJp8rPB-xAUSupDXy-21" value="&lt;b&gt;Результат загрузки объектов&lt;/b&gt;" style="text;html=1;strokeColor=none;fillColor=none;align=center;verticalAlign=middle;whiteSpace=wrap;rounded=0;fontSize=18;strokeWidth=2;spacing=4;" vertex="1" parent="1">
          <mxGeometry x="134" y="230" width="350" height="40" as="geometry" />
        </mxCell>
      </root>
    </mxGraphModel>
  </diagram>
</mxfile>
